<svg width="111" height="32" viewBox="0 0 111 32" fill="none" xmlns="http://www.w3.org/2000/svg">
<path d="M21.6196 7.39174C22.6302 8.42626 23.1347 9.8647 23.1347 11.7039V19.7342H18.9471V12.269C18.9471 11.3814 18.7124 10.6965 18.2447 10.2111C17.7769 9.7274 17.1319 9.48474 16.3113 9.48474C15.4891 9.48474 14.8457 9.7274 14.378 10.2111C13.9102 10.6965 13.6755 11.3814 13.6755 12.269V19.7342H9.48474V12.269C9.48474 11.3814 9.25005 10.6965 8.78228 10.2111C8.31451 9.7274 7.66953 9.48474 6.84893 9.48474C6.02674 9.48474 5.38336 9.7274 4.91559 10.2111C4.44782 10.6965 4.21313 11.3814 4.21313 12.269V19.7342H0V5.98683H4.21313V7.71104C4.63939 7.1363 5.19817 6.67971 5.88785 6.34444C6.57753 6.00758 7.35821 5.83995 8.2283 5.83995C9.26283 5.83995 10.1872 6.06187 10.9998 6.50569C11.8124 6.94951 12.4494 7.58172 12.9092 8.40232C13.385 7.64718 14.0347 7.03093 14.8553 6.55518C15.6759 6.07943 16.5715 5.83995 17.5406 5.83995C19.2505 5.83836 20.6091 6.35562 21.6196 7.39174Z" fill="#4878BC"/>
<path d="M25.3148 9.11595C25.848 8.0479 26.5744 7.2273 27.4956 6.65257C28.4151 6.07783 29.4417 5.79047 30.5752 5.79047C31.5442 5.79047 32.3936 5.98683 33.1248 6.38117C33.856 6.7755 34.4179 7.29276 34.8123 7.93295V5.98683H39.0254V19.7342H34.8123V17.7881C34.402 18.4283 33.8304 18.9455 33.0992 19.3399C32.368 19.7342 31.5187 19.9306 30.5496 19.9306C29.4321 19.9306 28.4135 19.6384 27.494 19.0557C26.5744 18.473 25.8464 17.6428 25.3132 16.5668C24.7799 15.4907 24.5117 14.2471 24.5117 12.8342C24.5133 11.4229 24.7799 10.184 25.3148 9.11595ZM33.9374 10.3724C33.3547 9.76572 32.6442 9.46079 31.8061 9.46079C30.9679 9.46079 30.2575 9.76093 29.6748 10.3596C29.092 10.9599 28.7999 11.7853 28.7999 12.8358C28.7999 13.8863 29.092 14.7212 29.6748 15.3359C30.2575 15.9521 30.9679 16.2602 31.8061 16.2602C32.6442 16.2602 33.3547 15.9569 33.9374 15.3486C34.5201 14.742 34.8123 13.9118 34.8123 12.8597C34.8123 11.8092 34.5201 10.9806 33.9374 10.3724Z" fill="#4878BC"/>
<path d="M41.6497 3.90501C41.1819 3.47076 40.9473 2.93115 40.9473 2.29096C40.9473 1.6348 41.1819 1.08721 41.6497 0.652963C42.1175 0.218719 42.721 0 43.4601 0C44.1833 0 44.7788 0.217122 45.2466 0.652963C45.7144 1.0888 45.9491 1.6348 45.9491 2.29096C45.9491 2.93115 45.7144 3.46917 45.2466 3.90501C44.7788 4.34085 44.1833 4.55797 43.4601 4.55797C42.721 4.55797 42.1175 4.34085 41.6497 3.90501ZM45.5547 5.98683V19.7342H41.3416V5.98683H45.5547Z" fill="#4878BC"/>
<path d="M47.8346 9.11594C48.3679 8.04789 49.0943 7.22729 50.0154 6.65256C50.935 6.07782 51.9616 5.79045 53.0951 5.79045C53.9987 5.79045 54.8241 5.97884 55.5712 6.35721C56.3184 6.73558 56.9059 7.24486 57.3322 7.88505V1.50229H61.5453V19.7342H57.3322V17.7625C56.9378 18.4203 56.3743 18.9455 55.6447 19.3398C54.9135 19.7342 54.0641 19.9305 53.0951 19.9305C51.9616 19.9305 50.935 19.6384 50.0154 19.0557C49.0959 18.473 48.3679 17.6428 47.8346 16.5667C47.3014 15.4907 47.0332 14.2471 47.0332 12.8342C47.0332 11.4229 47.2998 10.184 47.8346 9.11594ZM56.4573 10.3724C55.8746 9.76571 55.1641 9.46078 54.326 9.46078C53.4878 9.46078 52.7774 9.76092 52.1946 10.3596C51.6119 10.9599 51.3198 11.7853 51.3198 12.8358C51.3198 13.8862 51.6119 14.7212 52.1946 15.3359C52.7774 15.9521 53.4878 16.2602 54.326 16.2602C55.1641 16.2602 55.8746 15.9569 56.4573 15.3486C57.04 14.742 57.3322 13.9118 57.3322 12.8597C57.3322 11.8092 57.04 10.9806 56.4573 10.3724Z" fill="#4878BC"/>
<path d="M66.2502 19.3159C65.3147 18.9056 64.5755 18.342 64.0327 17.6284C63.4899 16.9132 63.1865 16.1134 63.1211 15.2257H67.2847C67.3342 15.7031 67.5561 16.0878 67.9505 16.3832C68.3448 16.6785 68.8285 16.827 69.4049 16.827C69.9301 16.827 70.3372 16.7248 70.6246 16.5189C70.912 16.3129 71.0556 16.0463 71.0556 15.7174C71.0556 15.3231 70.8497 15.0325 70.4394 14.8425C70.0291 14.6542 69.3634 14.445 68.4438 14.2135C67.4588 13.9836 66.6366 13.741 65.9804 13.4871C65.3227 13.2333 64.7559 12.831 64.2801 12.2802C63.8028 11.7294 63.5649 10.987 63.5649 10.0499C63.5649 9.26122 63.782 8.5428 64.2179 7.89463C64.6521 7.24646 65.2939 6.73239 66.1401 6.35562C66.9862 5.97725 67.992 5.78886 69.1574 5.78886C70.8816 5.78886 72.2402 6.21672 73.2348 7.06925C74.2279 7.92337 74.7994 9.05687 74.9479 10.4698H71.0556C70.9902 9.99401 70.781 9.61565 70.4282 9.33626C70.0754 9.05687 69.6108 8.91798 69.0361 8.91798C68.5428 8.91798 68.166 9.01217 67.9026 9.20215C67.6392 9.39054 67.5082 9.64917 67.5082 9.97805C67.5082 10.3724 67.7174 10.6677 68.1357 10.8641C68.5539 11.0621 69.2069 11.2584 70.0946 11.4548C71.1131 11.7182 71.9417 11.9769 72.5835 12.2307C73.2237 12.4861 73.7872 12.8964 74.271 13.4632C74.7547 14.0299 75.0054 14.7899 75.0229 15.743C75.0229 16.5476 74.7962 17.266 74.346 17.8982C73.8942 18.5304 73.246 19.0285 72.3999 19.3893C71.5537 19.7501 70.5719 19.9306 69.456 19.9306C68.2538 19.9321 67.1874 19.7262 66.2502 19.3159Z" fill="#4878BC"/>
<path d="M77.0286 19.2792C76.5609 18.8433 76.3262 18.3053 76.3262 17.6651C76.3262 17.009 76.5609 16.4582 77.0286 16.0144C77.4964 15.5705 78.0999 15.3486 78.839 15.3486C79.5623 15.3486 80.1577 15.5705 80.6255 16.0144C81.0933 16.4582 81.328 17.009 81.328 17.6651C81.328 18.3053 81.0933 18.8433 80.6255 19.2792C80.1577 19.715 79.5623 19.9321 78.839 19.9321C78.0999 19.9321 77.4964 19.7134 77.0286 19.2792Z" fill="#4878BC"/>
<path d="M83.1148 9.11595C83.6975 8.0479 84.5101 7.2273 85.5542 6.65257C86.5967 6.07783 87.7925 5.79047 89.1383 5.79047C90.8625 5.79047 92.3041 6.24227 93.4616 7.14588C94.619 8.0495 95.379 9.3219 95.7398 10.9647H91.2552C90.8769 9.91419 90.1473 9.38735 89.0633 9.38735C88.2906 9.38735 87.6743 9.68749 87.2161 10.2862C86.7563 10.8865 86.5264 11.7438 86.5264 12.8613C86.5264 13.9789 86.7563 14.8362 87.2161 15.4364C87.6759 16.0367 88.2922 16.3353 89.0633 16.3353C90.1473 16.3353 90.8785 15.81 91.2552 14.7579H95.7398C95.379 16.3672 94.6143 17.6332 93.4488 18.5528C92.2818 19.4724 90.845 19.9322 89.1367 19.9322C87.7893 19.9322 86.5951 19.6448 85.5526 19.0701C84.5101 18.4953 83.6959 17.6747 83.1132 16.6067C82.5304 15.5386 82.2383 14.2902 82.2383 12.8613C82.2399 11.4309 82.5304 10.184 83.1148 9.11595Z" fill="#4878BC"/>
<path d="M97.2808 9.11595C97.8635 8.0479 98.6761 7.2273 99.7202 6.65257C100.763 6.07783 101.958 5.79047 103.304 5.79047C105.029 5.79047 106.47 6.24227 107.628 7.14588C108.785 8.0495 109.545 9.3219 109.906 10.9647H105.421C105.043 9.91419 104.313 9.38735 103.229 9.38735C102.457 9.38735 101.84 9.68749 101.382 10.2862C100.922 10.8865 100.692 11.7438 100.692 12.8613C100.692 13.9789 100.922 14.8362 101.382 15.4364C101.842 16.0367 102.458 16.3353 103.229 16.3353C104.313 16.3353 105.044 15.81 105.421 14.7579H109.906C109.545 16.3672 108.78 17.6332 107.615 18.5528C106.448 19.4724 105.011 19.9322 103.303 19.9322C101.955 19.9322 100.761 19.6448 99.7186 19.0701C98.6761 18.4953 97.8619 17.6747 97.2792 16.6067C96.6965 15.5386 96.4043 14.2902 96.4043 12.8613C96.4059 11.4309 96.6981 10.184 97.2808 9.11595Z" fill="#4878BC"/>
<path d="M3.11954 25.5638V27.5578H4.98104V28.6753H3.11954V30.6789H1.85193V28.6753H0V27.5578H1.85193V25.5638H3.11954Z" fill="#4878BC"/>
<path d="M7.96094 31.4979V26.2774H8.92681C9.0242 26.2774 9.10562 26.2997 9.17108 26.3428C9.23653 26.386 9.28283 26.4514 9.30997 26.5392L9.40097 26.841C9.50155 26.7468 9.60532 26.6605 9.71388 26.5791C9.82085 26.4993 9.93579 26.4307 10.0587 26.3748C10.1817 26.3189 10.3142 26.2758 10.4562 26.2439C10.5983 26.2119 10.7548 26.196 10.9224 26.196C11.2082 26.196 11.4604 26.2455 11.6792 26.3444C11.8995 26.4434 12.0847 26.5807 12.2347 26.7579C12.3864 26.9335 12.4998 27.1443 12.5764 27.3869C12.653 27.6296 12.6929 27.8946 12.6929 28.1804V31.4979H11.1332V28.1804C11.1332 27.925 11.0741 27.727 10.9575 27.5833C10.8394 27.4412 10.667 27.3694 10.4387 27.3694C10.2679 27.3694 10.1066 27.4061 9.95495 27.4795C9.80329 27.553 9.6596 27.652 9.5223 27.7765V31.4963H7.96094V31.4979Z" fill="#4878BC"/>
<path d="M17.4024 31.4979C17.2539 31.4979 17.1438 31.4771 17.0671 31.4372C16.9921 31.3973 16.9282 31.3127 16.8787 31.185L16.7686 30.8976C16.6377 31.0078 16.5116 31.1052 16.3918 31.1898C16.2721 31.2744 16.146 31.3446 16.0166 31.4037C15.8873 31.4628 15.75 31.5059 15.6032 31.5346C15.4579 31.5634 15.295 31.5777 15.1178 31.5777C14.8799 31.5777 14.6628 31.5458 14.468 31.4835C14.2733 31.4213 14.1088 31.3303 13.9715 31.2089C13.8358 31.0876 13.7305 30.9375 13.657 30.7571C13.5836 30.5767 13.5469 30.3692 13.5469 30.1329C13.5469 29.9477 13.5932 29.7577 13.6874 29.563C13.7816 29.3682 13.9444 29.191 14.1759 29.0297C14.4074 28.8685 14.7203 28.736 15.1114 28.629C15.5042 28.5221 15.9991 28.4678 16.5962 28.4678V28.2443C16.5962 27.9361 16.5339 27.7126 16.4078 27.5769C16.2817 27.4412 16.1029 27.371 15.8714 27.371C15.6862 27.371 15.5361 27.3917 15.418 27.4316C15.2998 27.4716 15.196 27.5179 15.1035 27.5674C15.0109 27.6184 14.9215 27.6631 14.8336 27.7031C14.7458 27.743 14.6421 27.7637 14.5223 27.7637C14.4154 27.7637 14.3228 27.7382 14.2477 27.6855C14.1727 27.6328 14.112 27.5689 14.0689 27.4923L13.7863 27.0038C14.1025 26.726 14.4521 26.5185 14.8352 26.3828C15.22 26.2471 15.6319 26.1784 16.0709 26.1784C16.387 26.1784 16.6712 26.2295 16.9234 26.3317C17.1773 26.4338 17.3912 26.5775 17.5684 26.7595C17.7456 26.9415 17.8797 27.1602 17.9739 27.4109C18.0681 27.6631 18.1144 27.9377 18.1144 28.2363V31.4979H17.4024ZM15.6111 30.5464C15.8123 30.5464 15.9879 30.5113 16.1396 30.441C16.2912 30.3708 16.4429 30.2558 16.5978 30.0994V29.3842C16.2864 29.3842 16.0294 29.4049 15.8283 29.4448C15.6271 29.4847 15.4675 29.5358 15.3493 29.5965C15.2312 29.6572 15.1497 29.7274 15.105 29.804C15.0603 29.8823 15.0364 29.9669 15.0364 30.0579C15.0364 30.2367 15.0843 30.3628 15.1817 30.4362C15.2807 30.5097 15.4227 30.5464 15.6111 30.5464Z" fill="#4878BC"/>
<path d="M19.2266 31.4979V26.2774H20.1924C20.2898 26.2774 20.3712 26.2997 20.4367 26.3428C20.5022 26.386 20.5485 26.4514 20.5756 26.5392L20.6666 26.841C20.7672 26.7468 20.8709 26.6605 20.9795 26.5791C21.0865 26.4993 21.2014 26.4307 21.3243 26.3748C21.4473 26.3189 21.5798 26.2758 21.7219 26.2439C21.864 26.2119 22.0204 26.196 22.188 26.196C22.4738 26.196 22.7261 26.2455 22.9448 26.3444C23.1651 26.4434 23.3503 26.5807 23.5004 26.7579C23.652 26.9335 23.7654 27.1443 23.842 27.3869C23.9186 27.6296 23.9586 27.8946 23.9586 28.1804V31.4979H22.3988V28.1804C22.3988 27.925 22.3397 27.727 22.2232 27.5833C22.105 27.4412 21.9326 27.3694 21.7043 27.3694C21.5335 27.3694 21.3722 27.4061 21.2206 27.4795C21.0689 27.553 20.9252 27.652 20.7879 27.7765V31.4963H19.2266V31.4979Z" fill="#4878BC"/>
<path d="M25.0645 31.4979V26.2774H26.0303C26.1277 26.2774 26.2091 26.2997 26.2746 26.3428C26.34 26.386 26.3863 26.4514 26.4135 26.5392L26.5045 26.841C26.6051 26.7468 26.7088 26.6605 26.8174 26.5791C26.9244 26.4993 27.0393 26.4307 27.1622 26.3748C27.2852 26.3189 27.4177 26.2758 27.5598 26.2439C27.7019 26.2119 27.8583 26.196 28.0259 26.196C28.3117 26.196 28.564 26.2455 28.7827 26.3444C29.003 26.4434 29.1882 26.5807 29.3383 26.7579C29.4899 26.9335 29.6033 27.1443 29.6799 27.3869C29.7565 27.6296 29.7964 27.8946 29.7964 28.1804V31.4979H28.2367V28.1804C28.2367 27.925 28.1776 27.727 28.0611 27.5833C27.9429 27.4412 27.7705 27.3694 27.5422 27.3694C27.3714 27.3694 27.2101 27.4061 27.0585 27.4795C26.9068 27.553 26.7631 27.652 26.6258 27.7765V31.4963H25.0645V31.4979Z" fill="#4878BC"/>
<path d="M32.6967 24.8485C32.6967 24.9731 32.6712 25.0896 32.6217 25.1982C32.5706 25.3067 32.5019 25.4025 32.4157 25.4855C32.3279 25.567 32.2273 25.6324 32.1108 25.6819C31.9943 25.7314 31.8713 25.7553 31.7404 25.7553C31.6127 25.7553 31.4946 25.7314 31.3828 25.6819C31.2726 25.634 31.1737 25.5686 31.089 25.4855C31.0028 25.4025 30.9358 25.3083 30.8879 25.1982C30.84 25.0896 30.8145 24.9731 30.8145 24.8485C30.8145 24.7208 30.8384 24.6027 30.8879 24.4909C30.9374 24.3792 31.0044 24.2834 31.089 24.1988C31.1753 24.1142 31.2726 24.0487 31.3828 24.0024C31.493 23.9561 31.6127 23.9322 31.7404 23.9322C31.8713 23.9322 31.9943 23.9561 32.1108 24.0024C32.2273 24.0487 32.3279 24.1142 32.4157 24.1988C32.5035 24.2834 32.5722 24.3792 32.6217 24.4909C32.6712 24.6027 32.6967 24.7208 32.6967 24.8485ZM32.5147 26.2774V31.4979H30.9549V26.2774H32.5147Z" fill="#4878BC"/>
<path d="M36.0064 26.1976C36.3513 26.1976 36.669 26.2519 36.9547 26.3588C37.2405 26.4658 37.488 26.6222 37.6939 26.8266C37.8999 27.0309 38.0611 27.2816 38.1776 27.5785C38.2942 27.8755 38.3517 28.2123 38.3517 28.5875C38.3517 28.7057 38.3469 28.7998 38.3373 28.8749C38.3277 28.9483 38.3086 29.0074 38.2814 29.0505C38.2543 29.0936 38.2192 29.1239 38.1729 29.1415C38.1266 29.1591 38.0691 29.167 37.9988 29.167H34.9895C35.0405 29.6029 35.1731 29.919 35.387 30.1154C35.6009 30.3117 35.8787 30.4091 36.2172 30.4091C36.3992 30.4091 36.554 30.3868 36.6849 30.3436C36.8158 30.3005 36.9324 30.2511 37.0346 30.1968C37.1367 30.1425 37.2309 30.0946 37.3171 30.0515C37.4033 30.0084 37.4927 29.986 37.5869 29.986C37.7115 29.986 37.8057 30.0307 37.8695 30.1217L38.3229 30.6805C38.1617 30.8657 37.9877 31.0158 37.8025 31.1307C37.6157 31.2473 37.4257 31.3367 37.2293 31.4021C37.033 31.4676 36.8366 31.5123 36.6402 31.5378C36.4439 31.5634 36.2571 31.5761 36.0783 31.5761C35.7127 31.5761 35.3694 31.5171 35.0485 31.3973C34.7276 31.2776 34.4482 31.102 34.2072 30.8657C33.9677 30.631 33.7777 30.3389 33.6388 29.9892C33.4999 29.6396 33.4297 29.2341 33.4297 28.7711C33.4297 28.4215 33.4888 28.091 33.6085 27.7797C33.7282 27.4668 33.8991 27.1938 34.1226 26.9591C34.3461 26.7244 34.6159 26.5376 34.9336 26.4003C35.2497 26.2662 35.6073 26.1976 36.0064 26.1976ZM36.0368 27.2752C35.7382 27.2752 35.5051 27.3598 35.3375 27.529C35.1699 27.6983 35.0581 27.9425 35.0054 28.2618H36.9531C36.9531 28.1373 36.9372 28.0176 36.9052 27.8994C36.8733 27.7813 36.8206 27.6775 36.7488 27.5849C36.6769 27.4923 36.5812 27.4189 36.4646 27.3614C36.3481 27.3039 36.2044 27.2752 36.0368 27.2752Z" fill="#4878BC"/>
<path d="M42.4416 27.4205C42.4017 27.4843 42.3586 27.529 42.3139 27.5562C42.2692 27.5833 42.2101 27.5961 42.1399 27.5961C42.0664 27.5961 41.9914 27.5801 41.918 27.5482C41.8445 27.5163 41.7647 27.4827 41.6785 27.4444C41.5923 27.4077 41.4965 27.3726 41.3895 27.3407C41.2826 27.3087 41.1596 27.2928 41.0223 27.2928C40.8244 27.2928 40.6727 27.3311 40.5673 27.4061C40.462 27.4811 40.4093 27.5865 40.4093 27.7206C40.4093 27.818 40.4428 27.8978 40.5131 27.9617C40.5817 28.0255 40.6727 28.0814 40.7877 28.1309C40.901 28.1804 41.0303 28.2251 41.1756 28.2698C41.3193 28.3129 41.4678 28.3624 41.6178 28.4167C41.7679 28.471 41.9164 28.5332 42.0601 28.6051C42.2037 28.6769 42.3331 28.7663 42.448 28.8717C42.5614 28.9771 42.654 29.1064 42.7226 29.2564C42.7913 29.4081 42.8264 29.5885 42.8264 29.8008C42.8264 30.0595 42.7801 30.2973 42.6859 30.5161C42.5917 30.7348 42.4512 30.9216 42.266 31.0796C42.0792 31.2377 41.8493 31.3606 41.5763 31.4468C41.3033 31.5346 40.9888 31.5777 40.6328 31.5777C40.4556 31.5777 40.2768 31.5602 40.0996 31.5266C39.9224 31.4931 39.7499 31.4484 39.5839 31.3909C39.4179 31.3335 39.2646 31.2664 39.1241 31.1866C38.9836 31.1084 38.8623 31.0238 38.7617 30.9328L39.1241 30.3596C39.1672 30.2926 39.2199 30.2399 39.2806 30.2016C39.3412 30.1632 39.4195 30.1441 39.5169 30.1441C39.6079 30.1441 39.6893 30.1648 39.7611 30.2048C39.833 30.2447 39.9112 30.2894 39.9958 30.3357C40.0804 30.382 40.1778 30.4267 40.2896 30.4666C40.4013 30.5065 40.5434 30.5272 40.7142 30.5272C40.8356 30.5272 40.9377 30.5145 41.0207 30.4889C41.1038 30.4634 41.1724 30.4299 41.2219 30.3852C41.273 30.3421 41.3097 30.2926 41.3321 30.2399C41.356 30.1856 41.3672 30.1313 41.3672 30.0738C41.3672 29.9701 41.3321 29.8839 41.2618 29.8168C41.1916 29.7498 41.099 29.6923 40.9856 29.6428C40.8723 29.5949 40.7414 29.5486 40.5961 29.5071C40.4508 29.4656 40.3023 29.4177 40.1507 29.3634C39.999 29.3091 39.8505 29.2453 39.7052 29.1702C39.56 29.0952 39.4291 28.9994 39.3157 28.8829C39.2023 28.7663 39.1098 28.6258 39.0395 28.4582C38.9693 28.2906 38.9341 28.0878 38.9341 27.8483C38.9341 27.6264 38.9772 27.4157 39.0619 27.2161C39.1481 27.0166 39.2758 26.841 39.4466 26.6909C39.6174 26.5392 39.833 26.4195 40.0916 26.3317C40.3502 26.2423 40.652 26.1992 40.9984 26.1992C41.1868 26.1992 41.3688 26.2167 41.5444 26.2503C41.72 26.2838 41.886 26.3301 42.0409 26.3907C42.1958 26.4514 42.3363 26.5233 42.464 26.6047C42.5917 26.6861 42.7034 26.7771 42.8008 26.8745L42.4416 27.4205Z" fill="#4878BC"/>
<path d="M48.5609 25.5638V27.5578H50.424V28.6753H48.5609V30.6789H47.2933V28.6753H45.4414V27.5578H47.2933V25.5638H48.5609Z" fill="#F6891F"/>
<path d="M56.2916 31.4979H54.8724L52.8496 26.2774H54.1476C54.2577 26.2774 54.3519 26.3029 54.4269 26.3556C54.502 26.4083 54.5531 26.4722 54.5802 26.5488L55.305 28.8892C55.3625 29.0808 55.4168 29.2676 55.4678 29.448C55.5205 29.6284 55.5636 29.8104 55.602 29.9924C55.6387 29.812 55.6834 29.63 55.7377 29.448C55.7919 29.2676 55.8478 29.0808 55.9085 28.8892L56.6636 26.5488C56.6908 26.4722 56.7403 26.4067 56.8153 26.3556C56.8887 26.3029 56.9765 26.2774 57.0771 26.2774H58.316L56.2916 31.4979Z" fill="#F6891F"/>
<path d="M60.7631 24.8485C60.7631 24.9731 60.7376 25.0896 60.6881 25.1982C60.637 25.3067 60.5683 25.4025 60.4821 25.4855C60.3943 25.567 60.2938 25.6324 60.1772 25.6819C60.0623 25.7298 59.9377 25.7553 59.8068 25.7553C59.6791 25.7553 59.561 25.7314 59.4492 25.6819C59.3375 25.6324 59.2401 25.5686 59.1555 25.4855C59.0692 25.4025 59.0022 25.3083 58.9543 25.1982C58.9064 25.0896 58.8809 24.9731 58.8809 24.8485C58.8809 24.7208 58.9048 24.6027 58.9543 24.4909C59.0038 24.3792 59.0708 24.2834 59.1555 24.1988C59.2417 24.1142 59.3391 24.0487 59.4492 24.0024C59.5594 23.9561 59.6791 23.9322 59.8068 23.9322C59.9377 23.9322 60.0607 23.9561 60.1772 24.0024C60.2938 24.0487 60.3943 24.1142 60.4821 24.1988C60.5699 24.2834 60.6386 24.3792 60.6881 24.4909C60.7376 24.6027 60.7631 24.7208 60.7631 24.8485ZM60.5811 26.2774V31.4979H59.0214V26.2774H60.5811Z" fill="#F6891F"/>
<path d="M65.0318 27.4205C64.9919 27.4843 64.9488 27.529 64.9041 27.5562C64.8594 27.5833 64.8003 27.5961 64.7301 27.5961C64.6566 27.5961 64.5832 27.5801 64.5082 27.5482C64.4347 27.5163 64.3549 27.4827 64.2687 27.4444C64.1825 27.4061 64.0867 27.3726 63.9797 27.3407C63.8728 27.3087 63.7498 27.2928 63.6125 27.2928C63.4146 27.2928 63.2629 27.3311 63.1575 27.4061C63.0522 27.4811 62.9995 27.5865 62.9995 27.7206C62.9995 27.818 63.033 27.8978 63.1033 27.9617C63.1719 28.0255 63.2629 28.0814 63.3779 28.1309C63.4912 28.1804 63.6205 28.2251 63.7658 28.2698C63.9095 28.3129 64.058 28.3624 64.208 28.4167C64.3597 28.471 64.5066 28.5332 64.6519 28.6051C64.7955 28.6769 64.9249 28.7663 65.0398 28.8717C65.1548 28.9771 65.2458 29.1064 65.3144 29.2564C65.3831 29.4081 65.4182 29.5885 65.4182 29.8008C65.4182 30.0595 65.3719 30.2973 65.2777 30.5161C65.1835 30.7348 65.043 30.9216 64.8578 31.0796C64.671 31.2377 64.4411 31.3606 64.1681 31.4468C63.8951 31.5346 63.5806 31.5777 63.2246 31.5777C63.0458 31.5777 62.8686 31.5602 62.6914 31.5266C62.5142 31.4931 62.3417 31.4484 62.1757 31.3909C62.0097 31.3335 61.8564 31.2664 61.7159 31.1866C61.5754 31.1084 61.4541 31.0238 61.3535 30.9328L61.7159 30.3596C61.759 30.2926 61.8117 30.2399 61.8724 30.2016C61.933 30.1632 62.0113 30.1441 62.1087 30.1441C62.1997 30.1441 62.2811 30.1648 62.3529 30.2048C62.4248 30.2447 62.503 30.2894 62.5876 30.3357C62.6722 30.382 62.7696 30.4267 62.8814 30.4666C62.9931 30.5065 63.1352 30.5272 63.306 30.5272C63.4274 30.5272 63.5295 30.5145 63.6125 30.4889C63.6956 30.4634 63.7642 30.4299 63.8137 30.3852C63.8648 30.3421 63.9015 30.2926 63.9239 30.2399C63.9462 30.1872 63.959 30.1313 63.959 30.0738C63.959 29.9701 63.9239 29.8839 63.8536 29.8168C63.7834 29.7498 63.6908 29.6923 63.5774 29.6428C63.4641 29.5949 63.3332 29.5486 63.1879 29.5071C63.0426 29.4656 62.8941 29.4177 62.7425 29.3634C62.5908 29.3091 62.4423 29.2453 62.297 29.1702C62.1518 29.0952 62.0208 28.9994 61.9075 28.8829C61.7941 28.7663 61.7015 28.6258 61.6313 28.4582C61.5611 28.2906 61.5259 28.0878 61.5259 27.8483C61.5259 27.6264 61.569 27.4157 61.6537 27.2161C61.7399 27.0166 61.8676 26.841 62.0384 26.6909C62.2092 26.5392 62.4248 26.4195 62.6834 26.3317C62.942 26.2423 63.2438 26.1992 63.5886 26.1992C63.777 26.1992 63.959 26.2167 64.1346 26.2503C64.3102 26.2838 64.4762 26.3301 64.6311 26.3907C64.786 26.4514 64.9265 26.5233 65.0542 26.6047C65.1819 26.6861 65.2936 26.7771 65.391 26.8745L65.0318 27.4205Z" fill="#F6891F"/>
<path d="M69.8731 31.4979C69.7262 31.4979 69.6145 31.4771 69.5378 31.4372C69.4628 31.3973 69.3989 31.3127 69.3494 31.185L69.2393 30.8976C69.1084 31.0078 68.9823 31.1052 68.8625 31.1898C68.7428 31.2744 68.6167 31.3446 68.4873 31.4037C68.358 31.4628 68.2207 31.5059 68.0739 31.5346C67.927 31.5634 67.7657 31.5777 67.5885 31.5777C67.3506 31.5777 67.1335 31.5458 66.9388 31.4835C66.744 31.4213 66.5795 31.3303 66.4422 31.2089C66.3065 31.0876 66.2012 30.9375 66.1277 30.7571C66.0543 30.5767 66.0176 30.3692 66.0176 30.1329C66.0176 29.9477 66.0639 29.7577 66.1581 29.563C66.2523 29.3682 66.4151 29.191 66.6466 29.0297C66.8781 28.8685 67.191 28.736 67.5821 28.629C67.9749 28.5221 68.4698 28.4678 69.0669 28.4678V28.2443C69.0669 27.9361 69.0046 27.7126 68.8785 27.5769C68.7524 27.4412 68.5736 27.371 68.3421 27.371C68.1569 27.371 68.0068 27.3917 67.8887 27.4316C67.7705 27.4716 67.6668 27.5179 67.5742 27.5674C67.4816 27.6184 67.3922 27.6631 67.3043 27.7031C67.2165 27.743 67.1128 27.7637 66.9914 27.7637C66.8845 27.7637 66.7919 27.7382 66.7168 27.6855C66.6418 27.6328 66.5811 27.5689 66.538 27.4923L66.2555 27.0038C66.5716 26.726 66.9212 26.5185 67.3043 26.3828C67.6891 26.2471 68.101 26.1784 68.54 26.1784C68.8561 26.1784 69.1403 26.2295 69.3926 26.3317C69.6464 26.4338 69.8603 26.5775 70.0375 26.7595C70.2147 26.9415 70.3489 27.1602 70.443 27.4109C70.5372 27.6631 70.5835 27.9377 70.5835 28.2363V31.4979H69.8731ZM68.0802 30.5464C68.2814 30.5464 68.457 30.5113 68.6087 30.441C68.7603 30.3708 68.912 30.2558 69.0669 30.0994V29.3842C68.7556 29.3842 68.4985 29.4049 68.2974 29.4448C68.0962 29.4847 67.9366 29.5358 67.8184 29.5965C67.7003 29.6572 67.6189 29.7274 67.5742 29.804C67.5295 29.8823 67.5055 29.9669 67.5055 30.0579C67.5055 30.2367 67.5534 30.3628 67.6508 30.4362C67.7482 30.5097 67.8919 30.5464 68.0802 30.5464Z" fill="#F6891F"/>
<path d="M76.8287 27.4205C76.7888 27.4843 76.7457 27.529 76.701 27.5562C76.6563 27.5833 76.5972 27.5961 76.527 27.5961C76.4535 27.5961 76.3801 27.5801 76.305 27.5482C76.2316 27.5163 76.1518 27.4827 76.0656 27.4444C75.9794 27.4061 75.8836 27.3726 75.7766 27.3407C75.6696 27.3087 75.5467 27.2928 75.4094 27.2928C75.2115 27.2928 75.0598 27.3311 74.9544 27.4061C74.8491 27.4811 74.7964 27.5865 74.7964 27.7206C74.7964 27.818 74.8299 27.8978 74.9001 27.9617C74.9688 28.0255 75.0598 28.0814 75.1747 28.1309C75.2881 28.1804 75.4174 28.2251 75.5627 28.2698C75.7064 28.3129 75.8548 28.3624 76.0049 28.4167C76.1566 28.471 76.3035 28.5332 76.4487 28.6051C76.5924 28.6769 76.7217 28.7663 76.8367 28.8717C76.9516 28.9771 77.0426 29.1064 77.1113 29.2564C77.1799 29.4081 77.215 29.5885 77.215 29.8008C77.215 30.0595 77.1687 30.2973 77.0746 30.5161C76.9804 30.7348 76.8399 30.9216 76.6547 31.0796C76.4679 31.2377 76.238 31.3606 75.965 31.4468C75.692 31.5346 75.3775 31.5777 75.0215 31.5777C74.8427 31.5777 74.6655 31.5602 74.4882 31.5266C74.311 31.4931 74.1386 31.4484 73.9726 31.3909C73.8065 31.3335 73.6533 31.2664 73.5128 31.1866C73.3723 31.1084 73.251 31.0238 73.1504 30.9328L73.5128 30.3596C73.5559 30.2926 73.6086 30.2399 73.6692 30.2016C73.7299 30.1632 73.8081 30.1441 73.9055 30.1441C73.9965 30.1441 74.0779 30.1648 74.1498 30.2048C74.2216 30.2447 74.2999 30.2894 74.3845 30.3357C74.4691 30.382 74.5665 30.4267 74.6782 30.4666C74.79 30.5065 74.9321 30.5272 75.1029 30.5272C75.2242 30.5272 75.3264 30.5145 75.4094 30.4889C75.4924 30.4634 75.5611 30.4299 75.6106 30.3852C75.6617 30.3421 75.6984 30.2926 75.7207 30.2399C75.7431 30.1872 75.7559 30.1313 75.7559 30.0738C75.7559 29.9701 75.7207 29.8839 75.6505 29.8168C75.5802 29.7498 75.4876 29.6923 75.3743 29.6428C75.2609 29.5949 75.13 29.5486 74.9848 29.5071C74.8395 29.4656 74.691 29.4177 74.5393 29.3634C74.3877 29.3091 74.2392 29.2453 74.0939 29.1702C73.9486 29.0952 73.8177 28.9994 73.7044 28.8829C73.591 28.7663 73.4984 28.6258 73.4282 28.4582C73.3579 28.2906 73.3228 28.0878 73.3228 27.8483C73.3228 27.6264 73.3659 27.4157 73.4505 27.2161C73.5367 27.0166 73.6645 26.841 73.8353 26.6909C74.0061 26.5392 74.2216 26.4195 74.4803 26.3317C74.7389 26.2423 75.0406 26.1992 75.3855 26.1992C75.5739 26.1992 75.7559 26.2167 75.9315 26.2503C76.1071 26.2838 76.2731 26.3301 76.428 26.3907C76.5828 26.4514 76.7233 26.5233 76.851 26.6047C76.9788 26.6861 77.0905 26.7771 77.1879 26.8745L76.8287 27.4205Z" fill="#F6891F"/>
<path d="M80.301 26.1976C80.6474 26.1976 80.9635 26.2519 81.2493 26.3588C81.5351 26.4658 81.7825 26.6222 81.9885 26.8266C82.1944 27.0309 82.3557 27.2816 82.4722 27.5785C82.5888 27.8755 82.6462 28.2123 82.6462 28.5875C82.6462 28.7057 82.6414 28.7998 82.6319 28.8749C82.6223 28.9483 82.6031 29.0074 82.576 29.0505C82.5488 29.0936 82.5137 29.1239 82.4674 29.1415C82.4227 29.1591 82.3636 29.167 82.2934 29.167H79.284C79.3351 29.6029 79.4676 29.919 79.6816 30.1154C79.8955 30.3117 80.1733 30.4091 80.5117 30.4091C80.6921 30.4091 80.8486 30.3868 80.9795 30.3436C81.1104 30.3005 81.227 30.2511 81.3291 30.1968C81.4313 30.1425 81.5255 30.0946 81.6117 30.0515C81.6979 30.0084 81.7873 29.986 81.8815 29.986C82.006 29.986 82.1002 30.0307 82.1625 30.1217L82.6159 30.6805C82.4547 30.8657 82.2806 31.0158 82.0954 31.1307C81.9087 31.2473 81.7171 31.3367 81.5223 31.4021C81.3259 31.4676 81.1296 31.5123 80.9332 31.5378C80.7368 31.5634 80.55 31.5761 80.3712 31.5761C80.0056 31.5761 79.6624 31.5171 79.3415 31.3973C79.0206 31.2776 78.7412 31.102 78.5001 30.8657C78.2607 30.631 78.0707 30.3389 77.9318 29.9892C77.7929 29.6396 77.7227 29.2341 77.7227 28.7711C77.7227 28.4215 77.7817 28.091 77.9015 27.7797C78.0212 27.4668 78.192 27.1938 78.4155 26.9591C78.639 26.7244 78.9088 26.5376 79.2265 26.4003C79.5442 26.2662 79.9019 26.1976 80.301 26.1976ZM80.3313 27.2752C80.0328 27.2752 79.7997 27.3598 79.6321 27.529C79.4644 27.6983 79.3527 27.9425 79.3 28.2618H81.2477C81.2477 28.1373 81.2317 28.0176 81.1998 27.8994C81.1679 27.7813 81.1152 27.6775 81.0433 27.5849C80.9715 27.4923 80.8757 27.4189 80.7592 27.3614C80.6426 27.3023 80.499 27.2752 80.3313 27.2752Z" fill="#F6891F"/>
<path d="M83.5449 31.4979V26.2774H84.4709C84.5475 26.2774 84.613 26.2838 84.6641 26.2981C84.7167 26.3109 84.7599 26.3317 84.795 26.3604C84.8301 26.3891 84.8572 26.4275 84.8748 26.4738C84.894 26.5201 84.9083 26.5775 84.9227 26.6446L85.0089 27.1331C85.2005 26.8378 85.4144 26.6047 85.6539 26.4338C85.8918 26.263 86.152 26.1768 86.4346 26.1768C86.6724 26.1768 86.864 26.2343 87.0077 26.3476L86.8065 27.4955C86.7938 27.5658 86.7666 27.6152 86.7267 27.644C86.6868 27.6727 86.6325 27.6871 86.5655 27.6871C86.508 27.6871 86.4409 27.6791 86.3643 27.6647C86.2877 27.6504 86.1903 27.6424 86.0722 27.6424C85.6619 27.6424 85.341 27.8611 85.1063 28.2969V31.4979H83.5449Z" fill="#F6891F"/>
<path d="M90.5905 31.4979H89.1712L87.1484 26.2774H88.4464C88.5565 26.2774 88.6507 26.3029 88.7258 26.3556C88.8008 26.4083 88.8519 26.4722 88.879 26.5488L89.6038 28.8892C89.6613 29.0808 89.7156 29.2676 89.7667 29.448C89.8194 29.6284 89.8625 29.8104 89.9008 29.9924C89.9375 29.812 89.9822 29.63 90.0365 29.448C90.0908 29.266 90.1466 29.0808 90.2073 28.8892L90.9624 26.5488C90.9896 26.4722 91.0391 26.4067 91.1141 26.3556C91.1891 26.3045 91.2754 26.2774 91.3759 26.2774H92.6148L90.5905 31.4979Z" fill="#F6891F"/>
<path d="M95.06 24.8485C95.06 24.9731 95.0345 25.0896 94.985 25.1982C94.9339 25.3067 94.8652 25.4025 94.779 25.4855C94.6912 25.567 94.5906 25.6324 94.4741 25.6819C94.3591 25.7298 94.2346 25.7553 94.1037 25.7553C93.976 25.7553 93.8578 25.7314 93.7461 25.6819C93.6343 25.6324 93.5369 25.5686 93.4523 25.4855C93.3661 25.4025 93.2991 25.3083 93.2512 25.1982C93.2033 25.0896 93.1777 24.9731 93.1777 24.8485C93.1777 24.7208 93.2017 24.6027 93.2512 24.4909C93.3007 24.3792 93.3677 24.2834 93.4523 24.1988C93.5385 24.1142 93.6359 24.0487 93.7461 24.0024C93.8562 23.9561 93.976 23.9322 94.1037 23.9322C94.2346 23.9322 94.3575 23.9561 94.4741 24.0024C94.5906 24.0487 94.6912 24.1142 94.779 24.1988C94.8668 24.2834 94.9355 24.3792 94.985 24.4909C95.0345 24.6027 95.06 24.7208 95.06 24.8485ZM94.8796 26.2774V31.4979H93.3198V26.2774H94.8796Z" fill="#F6891F"/>
<path d="M99.9014 27.5163C99.8551 27.5737 99.8088 27.6184 99.7657 27.652C99.7226 27.6855 99.6604 27.7031 99.579 27.7031C99.5023 27.7031 99.4321 27.6839 99.3698 27.6472C99.3076 27.6105 99.2373 27.5689 99.1607 27.5242C99.084 27.4795 98.993 27.438 98.8893 27.4013C98.7855 27.3646 98.6562 27.3454 98.5013 27.3454C98.3097 27.3454 98.1453 27.3806 98.0048 27.4508C97.8643 27.5211 97.751 27.6216 97.66 27.7525C97.569 27.8835 97.5019 28.0431 97.4588 28.2331C97.4157 28.4231 97.3934 28.637 97.3934 28.8749C97.3934 29.3746 97.4892 29.7593 97.6823 30.0275C97.8755 30.2957 98.1405 30.4299 98.4806 30.4299C98.6626 30.4299 98.8047 30.4075 98.9116 30.3612C99.017 30.3165 99.1064 30.2654 99.1814 30.2095C99.2549 30.1537 99.3235 30.1026 99.3858 30.0563C99.448 30.01 99.5263 29.986 99.6205 29.986C99.745 29.986 99.8392 30.0307 99.903 30.1217L100.356 30.6805C100.195 30.8657 100.026 31.0158 99.8488 31.1307C99.67 31.2473 99.4895 31.3367 99.3028 31.4021C99.116 31.4676 98.9292 31.5123 98.7408 31.5378C98.5524 31.5634 98.3704 31.5761 98.1916 31.5761C97.8723 31.5761 97.5674 31.5155 97.2784 31.3941C96.9879 31.2728 96.7324 31.0988 96.5137 30.8689C96.2934 30.639 96.1194 30.3564 95.99 30.0212C95.8607 29.6859 95.7969 29.3027 95.7969 28.8733C95.7969 28.4981 95.8528 28.1453 95.9661 27.8196C96.0779 27.4923 96.2439 27.2081 96.4642 26.9687C96.6845 26.7292 96.9559 26.5392 97.28 26.4019C97.6041 26.2646 97.9793 26.196 98.4055 26.196C98.8142 26.196 99.1734 26.2614 99.4832 26.3923C99.7913 26.5233 100.071 26.7148 100.318 26.9655L99.9014 27.5163Z" fill="#F6891F"/>
<path d="M103.265 26.1976C103.61 26.1976 103.927 26.2519 104.213 26.3588C104.499 26.4658 104.746 26.6222 104.952 26.8266C105.158 27.0309 105.32 27.2816 105.436 27.5785C105.551 27.8755 105.61 28.2123 105.61 28.5875C105.61 28.7057 105.605 28.7998 105.596 28.8749C105.586 28.9483 105.567 29.0074 105.54 29.0505C105.513 29.0936 105.478 29.1239 105.431 29.1415C105.387 29.1591 105.328 29.167 105.257 29.167H102.248C102.299 29.6029 102.432 29.919 102.646 30.1154C102.861 30.3117 103.137 30.4091 103.476 30.4091C103.658 30.4091 103.813 30.3868 103.943 30.3436C104.074 30.3005 104.191 30.2511 104.293 30.1968C104.395 30.1425 104.489 30.0946 104.576 30.0515C104.662 30.0084 104.751 29.986 104.845 29.986C104.97 29.986 105.064 30.0307 105.128 30.1217L105.581 30.6805C105.42 30.8657 105.246 31.0158 105.061 31.1307C104.874 31.2473 104.684 31.3367 104.488 31.4021C104.291 31.4676 104.095 31.5123 103.899 31.5378C103.702 31.5634 103.516 31.5761 103.338 31.5761C102.973 31.5761 102.63 31.5171 102.309 31.3973C101.988 31.2776 101.708 31.102 101.469 30.8657C101.229 30.631 101.039 30.3389 100.901 29.9892C100.762 29.6396 100.691 29.2341 100.691 28.7711C100.691 28.4215 100.75 28.091 100.87 27.7797C100.99 27.4668 101.161 27.1938 101.384 26.9591C101.608 26.7244 101.878 26.5376 102.195 26.4003C102.507 26.2662 102.864 26.1976 103.265 26.1976ZM103.294 27.2752C102.995 27.2752 102.762 27.3598 102.594 27.529C102.427 27.6983 102.315 27.9425 102.262 28.2618H104.21C104.21 28.1373 104.194 28.0176 104.162 27.8994C104.13 27.7813 104.078 27.6775 104.006 27.5849C103.934 27.4923 103.838 27.4189 103.722 27.3614C103.605 27.3023 103.463 27.2752 103.294 27.2752Z" fill="#F6891F"/>
<path d="M109.697 27.4205C109.658 27.4843 109.614 27.529 109.57 27.5562C109.525 27.5833 109.466 27.5961 109.396 27.5961C109.322 27.5961 109.247 27.5801 109.174 27.5482C109.1 27.5163 109.021 27.4827 108.934 27.4444C108.848 27.4077 108.752 27.3726 108.645 27.3407C108.538 27.3087 108.416 27.2928 108.278 27.2928C108.08 27.2928 107.929 27.3311 107.823 27.4061C107.718 27.4811 107.665 27.5865 107.665 27.7206C107.665 27.818 107.699 27.8978 107.769 27.9617C107.839 28.0255 107.929 28.0814 108.044 28.1309C108.157 28.1804 108.286 28.2251 108.431 28.2698C108.575 28.3129 108.724 28.3624 108.874 28.4167C109.025 28.471 109.172 28.5332 109.316 28.6051C109.46 28.6769 109.589 28.7663 109.704 28.8717C109.817 28.9771 109.91 29.1064 109.978 29.2564C110.047 29.4081 110.082 29.5885 110.082 29.8008C110.082 30.0595 110.036 30.2973 109.942 30.5161C109.848 30.7348 109.707 30.9216 109.522 31.0796C109.335 31.2377 109.105 31.3606 108.832 31.4468C108.559 31.5346 108.245 31.5777 107.889 31.5777C107.711 31.5777 107.533 31.5602 107.355 31.5266C107.178 31.4931 107.006 31.4484 106.84 31.3909C106.674 31.3335 106.52 31.2664 106.38 31.1866C106.239 31.1084 106.118 31.0238 106.018 30.9328L106.38 30.3596C106.423 30.2926 106.476 30.2399 106.536 30.2016C106.597 30.1632 106.675 30.1441 106.773 30.1441C106.864 30.1441 106.945 30.1648 107.017 30.2048C107.089 30.2447 107.167 30.2894 107.252 30.3357C107.336 30.382 107.434 30.4267 107.545 30.4666C107.657 30.5065 107.799 30.5272 107.97 30.5272C108.091 30.5272 108.194 30.5145 108.277 30.4889C108.361 30.4634 108.428 30.4299 108.478 30.3852C108.529 30.3421 108.566 30.2926 108.588 30.2399C108.612 30.1856 108.623 30.1313 108.623 30.0738C108.623 29.9701 108.588 29.8839 108.518 29.8168C108.447 29.7498 108.355 29.6923 108.241 29.6428C108.128 29.5949 107.997 29.5486 107.852 29.5071C107.707 29.4656 107.558 29.4177 107.407 29.3634C107.255 29.3091 107.106 29.2453 106.961 29.1702C106.816 29.0952 106.685 28.9994 106.572 28.8829C106.458 28.7663 106.366 28.6258 106.295 28.4582C106.225 28.2906 106.19 28.0878 106.19 27.8483C106.19 27.6264 106.233 27.4157 106.318 27.2161C106.404 27.0166 106.532 26.841 106.702 26.6909C106.873 26.5392 107.089 26.4195 107.347 26.3317C107.606 26.2423 107.908 26.1992 108.254 26.1992C108.443 26.1992 108.625 26.2167 108.8 26.2503C108.976 26.2838 109.142 26.3301 109.297 26.3907C109.452 26.4514 109.592 26.5233 109.72 26.6047C109.848 26.6861 109.959 26.7771 110.057 26.8745L109.697 27.4205Z" fill="#F6891F"/>
</svg>
